<mxfile host="app.diagrams.net" modified="2023-01-30T09:51:04.408Z" agent="5.0 (X11)" etag="gxmlSqK67Wo-nKdcFqp1" version="20.8.13" type="github">
  <diagram name="Page-1" id="qKY5A3b2yTyfuWQOkHwc">
    <mxGraphModel dx="303" dy="366" grid="1" gridSize="10" guides="1" tooltips="1" connect="1" arrows="1" fold="1" page="1" pageScale="1" pageWidth="850" pageHeight="1100" math="0" shadow="0">
      <root>
        <mxCell id="0" />
        <mxCell id="1" parent="0" />
        <mxCell id="_bOkSZu44jL232rrwIgJ-1" value="" style="whiteSpace=wrap;html=1;aspect=fixed;gradientColor=none;fillColor=none;" vertex="1" parent="1">
          <mxGeometry x="80" y="180" width="80" height="80" as="geometry" />
        </mxCell>
      </root>
    </mxGraphModel>
  </diagram>
</mxfile>
